<svg width="145" height="34" viewBox="0 0 145 34" fill="none" xmlns="http://www.w3.org/2000/svg">
<g clip-path="url(#clip0_3860_197)">
<g filter="url(#filter0_d_3860_197)">
<path d="M20.1101 25.9327C21.8917 25.26 28.8737 21.9085 29.1827 10.6088C29.1958 10.1274 28.9447 9.67245 28.5358 9.41803C23.1257 6.05175 16.2729 6.05175 10.8628 9.41803C10.4539 9.67245 10.2027 10.1274 10.2159 10.6088C10.5249 21.9085 17.5069 25.26 19.2885 25.9327C19.5545 26.0331 19.8441 26.0331 20.1101 25.9327Z" fill="url(#paint0_linear_3860_197)" style=""/>
</g>
<g filter="url(#filter1_b_3860_197)">
<path d="M10.2787 13.3758L9.42032 13.8663C8.92731 14.148 8.61943 14.6797 8.63816 15.2472C9.04236 27.4966 17.436 30.9827 19.3244 31.6133C19.5727 31.6963 19.826 31.6963 20.0743 31.6133C21.9627 30.9827 30.3563 27.4966 30.7605 15.2472C30.7793 14.6797 30.4714 14.148 29.9784 13.8663L29.12 13.3758C23.2825 10.0401 16.1162 10.0401 10.2787 13.3758Z" fill="#E7DFDF" fill-opacity="0.7" style="fill:#E7DFDF;fill:color(display-p3 0.9049 0.8748 0.8748);fill-opacity:0.7;"/>
<path d="M9.45935 13.9346L10.3177 13.4441C16.1311 10.1222 23.2676 10.1222 29.081 13.4441L29.9393 13.9346C30.408 14.2024 30.6996 14.7073 30.6819 15.2446C30.4805 21.3497 28.2889 25.2651 25.9173 27.7328C23.5441 30.2021 20.9863 31.2258 20.0494 31.5387C19.8172 31.6163 19.5815 31.6163 19.3493 31.5387C18.4124 31.2258 15.8546 30.2021 13.4814 27.7328C11.1098 25.2651 8.91823 21.3497 8.71678 15.2446C8.69905 14.7073 8.99073 14.2024 9.45935 13.9346Z" stroke="url(#paint1_linear_3860_197)" style="" stroke-width="0.157336"/>
</g>
<g filter="url(#filter2_d_3860_197)">
<path fill-rule="evenodd" clip-rule="evenodd" d="M18.9036 18.2211C18.4322 18.2211 18.0757 18.6478 18.1596 19.1117L19.2715 25.2574C19.3089 25.4643 19.489 25.6147 19.6993 25.6147C19.9095 25.6147 20.0896 25.4643 20.1271 25.2574L21.2389 19.1117C21.3229 18.6478 20.9664 18.2211 20.495 18.2211H18.9036ZM19.6993 15.3458C20.3646 15.3458 20.904 15.8851 20.904 16.5505C20.904 17.2159 20.3646 17.7552 19.6993 17.7552C19.0339 17.7552 18.4945 17.2159 18.4945 16.5505C18.4945 15.8851 19.0339 15.3458 19.6993 15.3458Z" fill="white" style="fill:white;fill-opacity:1;"/>
</g>
</g>
<path d="M45.7618 22.7966H42.3115V12.6148H45.8314C46.8423 12.6148 47.7107 12.8186 48.4365 13.2263C49.1657 13.6307 49.7258 14.2124 50.1169 14.9713C50.508 15.7303 50.7036 16.6385 50.7036 17.6958C50.7036 18.7564 50.5064 19.6678 50.1119 20.4302C49.7208 21.1925 49.1557 21.7775 48.4166 22.1851C47.6808 22.5928 46.7959 22.7966 45.7618 22.7966ZM44.156 21.2008H45.6723C46.3816 21.2008 46.9732 21.0715 47.4472 20.813C47.9211 20.5511 48.2774 20.1617 48.5161 19.6446C48.7547 19.1243 48.874 18.4747 48.874 17.6958C48.874 16.9169 48.7547 16.2706 48.5161 15.7569C48.2774 15.2398 47.9244 14.8537 47.4571 14.5985C46.9931 14.34 46.4164 14.2107 45.727 14.2107H44.156V21.2008ZM55.7075 22.9458C54.9617 22.9458 54.3154 22.7817 53.7685 22.4536C53.2217 22.1255 52.7974 21.6664 52.4958 21.0765C52.1975 20.4865 52.0484 19.7971 52.0484 19.0083C52.0484 18.2195 52.1975 17.5284 52.4958 16.9351C52.7974 16.3418 53.2217 15.8811 53.7685 15.553C54.3154 15.2249 54.9617 15.0608 55.7075 15.0608C56.4532 15.0608 57.0995 15.2249 57.6464 15.553C58.1933 15.8811 58.6158 16.3418 58.9141 16.9351C59.2158 17.5284 59.3666 18.2195 59.3666 19.0083C59.3666 19.7971 59.2158 20.4865 58.9141 21.0765C58.6158 21.6664 58.1933 22.1255 57.6464 22.4536C57.0995 22.7817 56.4532 22.9458 55.7075 22.9458ZM55.7174 21.504C56.1218 21.504 56.4598 21.393 56.7316 21.1709C57.0034 20.9455 57.2056 20.6439 57.3381 20.2661C57.474 19.8883 57.542 19.4673 57.542 19.0033C57.542 18.536 57.474 18.1134 57.3381 17.7356C57.2056 17.3544 57.0034 17.0511 56.7316 16.8257C56.4598 16.6004 56.1218 16.4877 55.7174 16.4877C55.3031 16.4877 54.9584 16.6004 54.6833 16.8257C54.4115 17.0511 54.2077 17.3544 54.0718 17.7356C53.9392 18.1134 53.8729 18.536 53.8729 19.0033C53.8729 19.4673 53.9392 19.8883 54.0718 20.2661C54.2077 20.6439 54.4115 20.9455 54.6833 21.1709C54.9584 21.393 55.3031 21.504 55.7174 21.504ZM72.8135 12.6148V22.7966H71.1728L66.3753 15.8613H66.2907V22.7966H64.4463V12.6148H66.0968L70.8895 19.5552H70.9789V12.6148H72.8135ZM78.0747 22.9458C77.3289 22.9458 76.6826 22.7817 76.1357 22.4536C75.5889 22.1255 75.1646 21.6664 74.863 21.0765C74.5647 20.4865 74.4156 19.7971 74.4156 19.0083C74.4156 18.2195 74.5647 17.5284 74.863 16.9351C75.1646 16.3418 75.5889 15.8811 76.1357 15.553C76.6826 15.2249 77.3289 15.0608 78.0747 15.0608C78.8204 15.0608 79.4667 15.2249 80.0136 15.553C80.5604 15.8811 80.983 16.3418 81.2813 16.9351C81.5829 17.5284 81.7337 18.2195 81.7337 19.0083C81.7337 19.7971 81.5829 20.4865 81.2813 21.0765C80.983 21.6664 80.5604 22.1255 80.0136 22.4536C79.4667 22.7817 78.8204 22.9458 78.0747 22.9458ZM78.0846 21.504C78.489 21.504 78.827 21.393 79.0988 21.1709C79.3706 20.9455 79.5728 20.6439 79.7053 20.2661C79.8412 19.8883 79.9092 19.4673 79.9092 19.0033C79.9092 18.536 79.8412 18.1134 79.7053 17.7356C79.5728 17.3544 79.3706 17.0511 79.0988 16.8257C78.827 16.6004 78.489 16.4877 78.0846 16.4877C77.6703 16.4877 77.3256 16.6004 77.0505 16.8257C76.7787 17.0511 76.5749 17.3544 76.439 17.7356C76.3064 18.1134 76.2401 18.536 76.2401 19.0033C76.2401 19.4673 76.3064 19.8883 76.439 20.2661C76.5749 20.6439 76.7787 20.9455 77.0505 21.1709C77.3256 21.393 77.6703 21.504 78.0846 21.504ZM87.0745 15.1603V16.5523H82.6846V15.1603H87.0745ZM83.7684 13.3307H85.5681V20.4998C85.5681 20.7417 85.6045 20.9273 85.6775 21.0566C85.7537 21.1825 85.8531 21.2687 85.9758 21.3151C86.0984 21.3615 86.2343 21.3847 86.3834 21.3847C86.4961 21.3847 86.5989 21.3764 86.6917 21.3598C86.7878 21.3433 86.8607 21.3284 86.9104 21.3151L87.2137 22.7221C87.1176 22.7552 86.98 22.7917 86.801 22.8314C86.6254 22.8712 86.4099 22.8944 86.1547 22.901C85.704 22.9143 85.298 22.8463 84.9367 22.6972C84.5754 22.5447 84.2887 22.3094 84.0766 21.9912C83.8678 21.6731 83.7651 21.2753 83.7684 20.7981V13.3307ZM92.1318 22.7966V12.6148H95.95C96.7322 12.6148 97.3885 12.7507 97.9188 13.0225C98.4524 13.2943 98.8551 13.6754 99.1269 14.1659C99.4019 14.6532 99.5395 15.2216 99.5395 15.8712C99.5395 16.5241 99.4003 17.0909 99.1219 17.5715C98.8468 18.0488 98.4408 18.4183 97.9038 18.6802C97.3669 18.9387 96.7073 19.0679 95.9251 19.0679H93.2057V17.5367H95.6766C96.134 17.5367 96.5085 17.4737 96.8001 17.3478C97.0918 17.2185 97.3073 17.0312 97.4465 16.786C97.589 16.5374 97.6602 16.2325 97.6602 15.8712C97.6602 15.5099 97.589 15.2017 97.4465 14.9465C97.3039 14.688 97.0868 14.4924 96.7952 14.3598C96.5035 14.224 96.1273 14.156 95.6666 14.156H93.9763V22.7966H92.1318ZM97.3918 18.183L99.9124 22.7966H97.8541L95.3783 18.183H97.3918ZM104.429 22.9458C103.663 22.9458 103.002 22.7867 102.445 22.4685C101.892 22.147 101.466 21.6929 101.168 21.1063C100.869 20.5163 100.72 19.822 100.72 19.0232C100.72 18.2377 100.869 17.5483 101.168 16.955C101.469 16.3584 101.89 15.8944 102.43 15.563C102.971 15.2282 103.605 15.0608 104.335 15.0608C104.805 15.0608 105.249 15.1371 105.667 15.2895C106.088 15.4387 106.459 15.6707 106.781 15.9856C107.105 16.3004 107.361 16.7015 107.546 17.1887C107.732 17.6726 107.825 18.2493 107.825 18.9188V19.4706H101.565V18.2576H106.1C106.096 17.9129 106.022 17.6063 105.876 17.3378C105.73 17.066 105.526 16.8523 105.264 16.6965C105.006 16.5407 104.704 16.4628 104.359 16.4628C103.992 16.4628 103.668 16.5523 103.39 16.7313C103.112 16.907 102.894 17.139 102.739 17.4273C102.586 17.7124 102.508 18.0256 102.505 18.3669V19.4259C102.505 19.87 102.586 20.2512 102.749 20.5694C102.911 20.8842 103.138 21.1262 103.43 21.2952C103.721 21.4609 104.063 21.5438 104.454 21.5438C104.716 21.5438 104.953 21.5073 105.165 21.4344C105.377 21.3582 105.561 21.2472 105.717 21.1013C105.872 20.9555 105.99 20.7749 106.07 20.5594L107.75 20.7483C107.644 21.1925 107.442 21.5802 107.144 21.9117C106.849 22.2398 106.471 22.495 106.01 22.6773C105.549 22.8563 105.022 22.9458 104.429 22.9458ZM113.215 15.1603V16.5523H108.701V15.1603H113.215ZM109.829 22.7966V14.4394C109.829 13.9257 109.936 13.4981 110.148 13.1567C110.363 12.8153 110.651 12.5601 111.013 12.3911C111.374 12.2221 111.775 12.1375 112.216 12.1375C112.527 12.1375 112.804 12.1624 113.046 12.2121C113.288 12.2618 113.467 12.3066 113.583 12.3463L113.225 13.7384C113.149 13.7152 113.053 13.692 112.937 13.6688C112.821 13.6423 112.691 13.629 112.549 13.629C112.214 13.629 111.977 13.7102 111.838 13.8726C111.702 14.0317 111.634 14.2604 111.634 14.5587V22.7966H109.829ZM114.625 22.7966V15.1603H116.37V16.433H116.449C116.588 15.9922 116.827 15.6525 117.165 15.4138C117.506 15.1719 117.896 15.0509 118.333 15.0509C118.433 15.0509 118.544 15.0559 118.666 15.0658C118.792 15.0724 118.897 15.084 118.98 15.1006V16.7561C118.903 16.7296 118.782 16.7064 118.617 16.6865C118.454 16.6633 118.297 16.6517 118.144 16.6517C117.816 16.6517 117.521 16.723 117.259 16.8655C117.001 17.0047 116.797 17.1986 116.648 17.4472C116.499 17.6958 116.424 17.9825 116.424 18.3073V22.7966H114.625ZM123.242 22.9458C122.476 22.9458 121.815 22.7867 121.258 22.4685C120.704 22.147 120.278 21.6929 119.98 21.1063C119.682 20.5163 119.533 19.822 119.533 19.0232C119.533 18.2377 119.682 17.5483 119.98 16.955C120.282 16.3584 120.703 15.8944 121.243 15.563C121.783 15.2282 122.418 15.0608 123.147 15.0608C123.618 15.0608 124.062 15.1371 124.479 15.2895C124.9 15.4387 125.272 15.6707 125.593 15.9856C125.918 16.3004 126.173 16.7015 126.359 17.1887C126.544 17.6726 126.637 18.2493 126.637 18.9188V19.4706H120.378V18.2576H124.912C124.909 17.9129 124.834 17.6063 124.688 17.3378C124.542 17.066 124.339 16.8523 124.077 16.6965C123.818 16.5407 123.517 16.4628 123.172 16.4628C122.804 16.4628 122.481 16.5523 122.202 16.7313C121.924 16.907 121.707 17.139 121.551 17.4273C121.399 17.7124 121.321 18.0256 121.318 18.3669V19.4259C121.318 19.87 121.399 20.2512 121.561 20.5694C121.724 20.8842 121.951 21.1262 122.242 21.2952C122.534 21.4609 122.875 21.5438 123.266 21.5438C123.528 21.5438 123.765 21.5073 123.977 21.4344C124.189 21.3582 124.373 21.2472 124.529 21.1013C124.685 20.9555 124.803 20.7749 124.882 20.5594L126.563 20.7483C126.457 21.1925 126.254 21.5802 125.956 21.9117C125.661 22.2398 125.283 22.495 124.823 22.6773C124.362 22.8563 123.835 22.9458 123.242 22.9458ZM134.195 17.1787L132.555 17.3577C132.508 17.192 132.427 17.0362 132.311 16.8904C132.198 16.7445 132.046 16.6269 131.854 16.5374C131.661 16.4479 131.426 16.4032 131.148 16.4032C130.773 16.4032 130.458 16.4844 130.203 16.6468C129.951 16.8092 129.827 17.0196 129.83 17.2782C129.827 17.5002 129.908 17.6809 130.074 17.8201C130.243 17.9593 130.521 18.0736 130.909 18.1631L132.212 18.4415C132.934 18.5973 133.471 18.8442 133.822 19.1823C134.177 19.5204 134.356 19.9628 134.359 20.5097C134.356 20.9903 134.215 21.4145 133.937 21.7824C133.662 22.147 133.279 22.432 132.788 22.6375C132.298 22.843 131.734 22.9458 131.098 22.9458C130.163 22.9458 129.411 22.7502 128.841 22.3591C128.271 21.9647 127.931 21.4162 127.822 20.7135L129.577 20.5445C129.656 20.8892 129.825 21.1494 130.084 21.325C130.342 21.5007 130.679 21.5885 131.093 21.5885C131.52 21.5885 131.864 21.5007 132.122 21.325C132.384 21.1494 132.515 20.9323 132.515 20.6738C132.515 20.455 132.43 20.2744 132.261 20.1319C132.096 19.9893 131.837 19.88 131.486 19.8037L130.183 19.5303C129.451 19.3778 128.909 19.121 128.557 18.7597C128.206 18.3951 128.032 17.9344 128.035 17.3776C128.032 16.907 128.16 16.4993 128.418 16.1546C128.68 15.8066 129.043 15.5381 129.507 15.3492C129.974 15.157 130.513 15.0608 131.123 15.0608C132.018 15.0608 132.722 15.2514 133.236 15.6326C133.753 16.0137 134.073 16.5291 134.195 17.1787ZM137.643 18.3222V22.7966H135.843V12.6148H137.603V16.4579H137.693C137.872 16.027 138.148 15.6873 138.523 15.4387C138.901 15.1868 139.381 15.0608 139.965 15.0608C140.495 15.0608 140.957 15.1719 141.352 15.3939C141.746 15.616 142.051 15.9408 142.267 16.3684C142.485 16.7959 142.595 17.3179 142.595 17.9344V22.7966H140.795V18.2128C140.795 17.6991 140.662 17.2997 140.397 17.0147C140.135 16.7263 139.768 16.5821 139.294 16.5821C138.975 16.5821 138.69 16.6517 138.438 16.7909C138.19 16.9268 137.994 17.124 137.852 17.3826C137.713 17.6411 137.643 17.9543 137.643 18.3222Z" fill="#BE0101" style="fill:#BE0101;fill:color(display-p3 0.7451 0.0039 0.0039);fill-opacity:1;"/>
<defs>
<filter id="filter0_d_3860_197" x="3.19152" y="2.67895" width="33.0156" height="33.1626" filterUnits="userSpaceOnUse" color-interpolation-filters="sRGB">
<feFlood flood-opacity="0" result="BackgroundImageFix"/>
<feColorMatrix in="SourceAlpha" type="matrix" values="0 0 0 0 0 0 0 0 0 0 0 0 0 0 0 0 0 0 127 0" result="hardAlpha"/>
<feOffset dy="2.80957"/>
<feGaussianBlur stdDeviation="3.51197"/>
<feComposite in2="hardAlpha" operator="out"/>
<feColorMatrix type="matrix" values="0 0 0 0 0 0 0 0 0 0 0 0 0 0 0 0 0 0 0.5 0"/>
<feBlend mode="normal" in2="BackgroundImageFix" result="effect1_dropShadow_3860_197"/>
<feBlend mode="normal" in="SourceGraphic" in2="effect1_dropShadow_3860_197" result="shape"/>
</filter>
<filter id="filter1_b_3860_197" x="5.47267" y="7.70937" width="28.4533" height="27.1308" filterUnits="userSpaceOnUse" color-interpolation-filters="sRGB">
<feFlood flood-opacity="0" result="BackgroundImageFix"/>
<feGaussianBlur in="BackgroundImageFix" stdDeviation="1.58233"/>
<feComposite in2="SourceAlpha" operator="in" result="effect1_backgroundBlur_3860_197"/>
<feBlend mode="normal" in="SourceGraphic" in2="effect1_backgroundBlur_3860_197" result="shape"/>
</filter>
<filter id="filter2_d_3860_197" x="17.1188" y="15.3458" width="5.16092" height="12.326" filterUnits="userSpaceOnUse" color-interpolation-filters="sRGB">
<feFlood flood-opacity="0" result="BackgroundImageFix"/>
<feColorMatrix in="SourceAlpha" type="matrix" values="0 0 0 0 0 0 0 0 0 0 0 0 0 0 0 0 0 0 127 0" result="hardAlpha"/>
<feOffset dy="1.02852"/>
<feGaussianBlur stdDeviation="0.514259"/>
<feComposite in2="hardAlpha" operator="out"/>
<feColorMatrix type="matrix" values="0 0 0 0 0 0 0 0 0 0 0 0 0 0 0 0 0 0 0.25 0"/>
<feBlend mode="normal" in2="BackgroundImageFix" result="effect1_dropShadow_3860_197"/>
<feBlend mode="normal" in="SourceGraphic" in2="effect1_dropShadow_3860_197" result="shape"/>
</filter>
<linearGradient id="paint0_linear_3860_197" x1="14.4283" y1="11.7915" x2="35.0613" y2="27.3201" gradientUnits="userSpaceOnUse">
<stop stop-color="#FE3838" style="stop-color:#FE3838;stop-color:color(display-p3 0.9950 0.2181 0.2181);stop-opacity:1;"/>
<stop offset="1" stop-color="#EBFF00" style="stop-color:#EBFF00;stop-color:color(display-p3 0.9200 1.0000 0.0000);stop-opacity:1;"/>
</linearGradient>
<linearGradient id="paint1_linear_3860_197" x1="9.05023" y1="13.0273" x2="36.5131" y2="33.2797" gradientUnits="userSpaceOnUse">
<stop stop-color="white" style="stop-color:white;stop-opacity:1;"/>
<stop offset="0.734375" stop-color="white" stop-opacity="0" style="stop-color:none;stop-opacity:0;"/>
</linearGradient>
<clipPath id="clip0_3860_197">
<rect width="33.0827" height="33.0827" fill="white" style="fill:white;fill-opacity:1;" transform="translate(0.711304 0.755127)"/>
</clipPath>
</defs>
</svg>
