<svg width="156" height="40" viewBox="0 0 156 40" fill="none" xmlns="http://www.w3.org/2000/svg">
<path d="M153.03 28.8149H155.24V29.3455H153.704V30.2242H155.096V30.7492H153.704V31.7661H155.257V32.2967H153.03V28.8149Z" fill="#353936" style="fill:#353936;fill:color(display-p3 0.2078 0.2235 0.2118);fill-opacity:1;"/>
<path d="M152.438 28.8149V29.3565H151.416V32.2967H150.742V29.3565H149.747V28.8149H152.438Z" fill="#353936" style="fill:#353936;fill:color(display-p3 0.2078 0.2235 0.2118);fill-opacity:1;"/>
<path d="M147.661 30.9371H148.628L148.446 30.4232C148.394 30.2684 148.344 30.1229 148.296 29.9866C148.252 29.8502 148.206 29.701 148.158 29.5389H148.147C148.096 29.69 148.046 29.8373 147.998 29.981C147.95 30.121 147.899 30.2684 147.843 30.4232L147.661 30.9371ZM147.827 28.8149H148.501L149.822 32.2967H149.109L148.799 31.44H147.501L147.191 32.2967H146.489L147.827 28.8149Z" fill="#353936" style="fill:#353936;fill:color(display-p3 0.2078 0.2235 0.2118);fill-opacity:1;"/>
<path d="M145.238 31.8213C145.411 31.8213 145.557 31.8066 145.675 31.7771C145.792 31.7477 145.899 31.7071 145.995 31.6555L146.139 32.164C146.036 32.2156 145.905 32.2598 145.746 32.2966C145.588 32.3335 145.395 32.3519 145.166 32.3519C144.916 32.3519 144.682 32.3114 144.464 32.2303C144.251 32.1492 144.065 32.0332 143.906 31.8821C143.751 31.7274 143.63 31.5395 143.541 31.3184C143.453 31.0937 143.409 30.8395 143.409 30.5558C143.409 30.2794 143.451 30.0307 143.536 29.8097C143.621 29.5849 143.74 29.3952 143.895 29.2405C144.053 29.0857 144.241 28.9678 144.459 28.8868C144.676 28.802 144.917 28.7596 145.183 28.7596C145.419 28.7596 145.612 28.7799 145.763 28.8204C145.914 28.861 146.043 28.9089 146.15 28.9641L145.995 29.4726C145.885 29.4173 145.772 29.3731 145.658 29.3399C145.544 29.3068 145.411 29.2902 145.26 29.2902C145.105 29.2902 144.958 29.3141 144.818 29.362C144.682 29.4062 144.562 29.4799 144.459 29.5831C144.359 29.6826 144.278 29.8134 144.216 29.9755C144.157 30.1339 144.127 30.3273 144.127 30.5558C144.127 30.7768 144.157 30.9684 144.216 31.1305C144.275 31.289 144.354 31.4197 144.453 31.5229C144.553 31.6261 144.669 31.7016 144.801 31.7495C144.938 31.7974 145.083 31.8213 145.238 31.8213Z" fill="#353936" style="fill:#353936;fill:color(display-p3 0.2078 0.2235 0.2118);fill-opacity:1;"/>
<path d="M139.809 28.8149H140.484V30.8984C140.484 31.219 140.543 31.4548 140.66 31.6058C140.782 31.7532 140.975 31.8269 141.241 31.8269C141.502 31.8269 141.692 31.7477 141.81 31.5893C141.928 31.4271 141.987 31.219 141.987 30.9648V28.8149H142.661V30.9205C142.661 31.4032 142.539 31.7624 142.296 31.9982C142.053 32.234 141.701 32.3519 141.241 32.3519C141.016 32.3519 140.815 32.3243 140.638 32.269C140.461 32.2101 140.31 32.1216 140.185 32.0037C140.064 31.8822 139.97 31.7293 139.903 31.545C139.841 31.3608 139.809 31.1435 139.809 30.8929V28.8149Z" fill="#353936" style="fill:#353936;fill:color(display-p3 0.2078 0.2235 0.2118);fill-opacity:1;"/>
<path d="M137.287 28.8149C137.549 28.8149 137.788 28.8499 138.006 28.9199C138.223 28.9899 138.409 29.095 138.564 29.235C138.722 29.375 138.844 29.55 138.928 29.76C139.017 29.9663 139.061 30.2076 139.061 30.484C139.061 30.8045 139.01 31.0808 138.906 31.3129C138.803 31.5414 138.663 31.7293 138.486 31.8766C138.309 32.0203 138.103 32.1272 137.867 32.1972C137.635 32.2635 137.387 32.2967 137.121 32.2967H136.099V28.8149H137.287ZM136.773 31.7661H137.072C137.234 31.7661 137.39 31.7477 137.541 31.7108C137.696 31.6703 137.832 31.6022 137.95 31.5064C138.068 31.4106 138.162 31.2798 138.232 31.114C138.306 30.9482 138.343 30.7382 138.343 30.484C138.343 30.1155 138.238 29.8337 138.028 29.6384C137.821 29.4431 137.541 29.3455 137.188 29.3455H136.773V31.7661Z" fill="#353936" style="fill:#353936;fill:color(display-p3 0.2078 0.2235 0.2118);fill-opacity:1;"/>
<path d="M133.132 28.8149H135.343V29.3455H133.807V30.2242H135.199V30.7492H133.807V31.7661H135.36V32.2967H133.132V28.8149Z" fill="#353936" style="fill:#353936;fill:color(display-p3 0.2078 0.2235 0.2118);fill-opacity:1;"/>
<path d="M127.553 28.8149H129.764V29.3455H128.227V30.2242H129.62V30.7492H128.227V31.7661H129.78V32.2967H127.553V28.8149Z" fill="#353936" style="fill:#353936;fill:color(display-p3 0.2078 0.2235 0.2118);fill-opacity:1;"/>
<path d="M126.962 28.8149V29.3565H125.94V32.2967H125.266V29.3565H124.271V28.8149H126.962Z" fill="#353936" style="fill:#353936;fill:color(display-p3 0.2078 0.2235 0.2118);fill-opacity:1;"/>
<path d="M122.185 30.9371H123.152L122.969 30.4232C122.918 30.2684 122.868 30.1229 122.82 29.9866C122.776 29.8502 122.73 29.701 122.682 29.5389H122.671C122.619 29.69 122.57 29.8373 122.522 29.981C122.474 30.121 122.422 30.2684 122.367 30.4232L122.185 30.9371ZM122.35 28.8149H123.025L124.345 32.2967H123.633L123.323 31.44H122.024L121.715 32.2967H121.013L122.35 28.8149Z" fill="#353936" style="fill:#353936;fill:color(display-p3 0.2078 0.2235 0.2118);fill-opacity:1;"/>
<path d="M118.147 28.8149H119.402C119.593 28.8149 119.761 28.8426 119.905 28.8978C120.048 28.9531 120.168 29.0286 120.264 29.1244C120.363 29.2202 120.437 29.3326 120.485 29.4615C120.537 29.5905 120.562 29.7305 120.562 29.8816C120.562 30.0216 120.54 30.145 120.496 30.2518C120.455 30.3587 120.402 30.4526 120.336 30.5337C120.269 30.6147 120.196 30.6829 120.115 30.7382C120.034 30.7898 119.954 30.8321 119.877 30.8653L120.756 32.2967H119.988L119.264 30.9869H118.805V32.2967H118.147V28.8149ZM118.805 30.4618H119.142C119.352 30.4618 119.525 30.4195 119.661 30.3347C119.798 30.2463 119.866 30.1008 119.866 29.8981C119.866 29.7139 119.811 29.5739 119.7 29.4781C119.593 29.3823 119.435 29.3344 119.225 29.3344H118.805V30.4618Z" fill="#353936" style="fill:#353936;fill:color(display-p3 0.2078 0.2235 0.2118);fill-opacity:1;"/>
<path d="M116.163 28.7596C116.373 28.7596 116.561 28.7762 116.727 28.8094C116.896 28.8425 117.049 28.8923 117.186 28.9586L117.042 29.4339C116.913 29.3712 116.78 29.327 116.644 29.3012C116.508 29.2718 116.37 29.257 116.23 29.257C116.075 29.257 115.928 29.281 115.788 29.3289C115.651 29.3768 115.53 29.4541 115.423 29.561C115.32 29.6642 115.237 29.7986 115.174 29.9644C115.115 30.1265 115.086 30.3255 115.086 30.5613C115.086 30.9776 115.178 31.2963 115.362 31.5174C115.55 31.7384 115.817 31.849 116.163 31.849C116.381 31.849 116.55 31.825 116.672 31.7771V30.915H116.069V30.4065H117.313V32.1419C117.165 32.2045 116.998 32.2561 116.81 32.2966C116.622 32.3335 116.406 32.3519 116.163 32.3519C115.913 32.3519 115.677 32.3132 115.456 32.2358C115.239 32.1585 115.049 32.0442 114.887 31.8932C114.725 31.7421 114.597 31.5561 114.505 31.335C114.413 31.1103 114.367 30.8524 114.367 30.5613C114.367 30.2702 114.413 30.0123 114.505 29.7876C114.597 29.5628 114.723 29.3749 114.881 29.2239C115.043 29.0691 115.233 28.9531 115.45 28.8757C115.671 28.7983 115.909 28.7596 116.163 28.7596Z" fill="#353936" style="fill:#353936;fill:color(display-p3 0.2078 0.2235 0.2118);fill-opacity:1;"/>
<path d="M111.605 28.8149H113.815V29.3455H112.279V30.2242H113.672V30.7492H112.279V31.7661H113.832V32.2967H111.605V28.8149Z" fill="#353936" style="fill:#353936;fill:color(display-p3 0.2078 0.2235 0.2118);fill-opacity:1;"/>
<path d="M111.014 28.8149V29.3565H109.992V32.2967H109.318V29.3565H108.323V28.8149H111.014Z" fill="#353936" style="fill:#353936;fill:color(display-p3 0.2078 0.2235 0.2118);fill-opacity:1;"/>
<path d="M104.825 28.8149H105.433L106.759 30.7713C106.833 30.8819 106.901 30.9924 106.964 31.1029C107.027 31.2098 107.076 31.2982 107.113 31.3682H107.124C107.102 31.114 107.091 30.8598 107.091 30.6055C107.091 30.3476 107.091 30.0916 107.091 29.8373V28.8149H107.727V32.2967H107.119L105.853 30.4453C105.768 30.32 105.687 30.1892 105.61 30.0529C105.536 29.9166 105.479 29.806 105.439 29.7213H105.428C105.446 29.9939 105.455 30.2592 105.455 30.5171C105.459 30.7713 105.461 31.0311 105.461 31.2964V32.2967H104.825V28.8149Z" fill="#353936" style="fill:#353936;fill:color(display-p3 0.2078 0.2235 0.2118);fill-opacity:1;"/>
<path d="M103.888 28.8149V32.2967H103.214V28.8149H103.888Z" fill="#353936" style="fill:#353936;fill:color(display-p3 0.2078 0.2235 0.2118);fill-opacity:1;"/>
<path d="M97.6343 28.8149H99.8449V29.3455H98.3085V30.2242H99.7012V30.7492H98.3085V31.7661H99.8615V32.2967H97.6343V28.8149Z" fill="#353936" style="fill:#353936;fill:color(display-p3 0.2078 0.2235 0.2118);fill-opacity:1;"/>
<path d="M97.0435 28.8149V29.3565H96.0211V32.2967H95.3468V29.3565H94.3521V28.8149H97.0435Z" fill="#353936" style="fill:#353936;fill:color(display-p3 0.2078 0.2235 0.2118);fill-opacity:1;"/>
<path d="M92.2659 30.9371H93.233L93.0506 30.4232C92.999 30.2684 92.9493 30.1229 92.9014 29.9866C92.8572 29.8502 92.8111 29.701 92.7632 29.5389H92.7522C92.7006 29.69 92.6509 29.8373 92.603 29.981C92.5551 30.121 92.5035 30.2684 92.4482 30.4232L92.2659 30.9371ZM92.4317 28.8149H93.1059L94.4267 32.2967H93.7138L93.4043 31.44H92.1056L91.7961 32.2967H91.0942L92.4317 28.8149Z" fill="#353936" style="fill:#353936;fill:color(display-p3 0.2078 0.2235 0.2118);fill-opacity:1;"/>
<path d="M88.6678 28.8149L89.2923 30.6608C89.3144 30.7198 89.3383 30.7898 89.3641 30.8708C89.3899 30.9519 89.4157 31.0348 89.4415 31.1195C89.4709 31.2042 89.4986 31.289 89.5244 31.3737C89.5502 31.4585 89.5723 31.5358 89.5907 31.6058H89.6073C89.6257 31.5395 89.646 31.4658 89.6681 31.3848C89.6938 31.3 89.7196 31.2171 89.7454 31.1361C89.7712 31.0513 89.797 30.9703 89.8228 30.8929C89.8486 30.8119 89.8725 30.7382 89.8946 30.6719L90.5412 28.8149H91.2376L89.9554 32.2967H89.2425L87.9548 28.8149H88.6678Z" fill="#353936" style="fill:#353936;fill:color(display-p3 0.2078 0.2235 0.2118);fill-opacity:1;"/>
<path d="M85.9621 28.7596C86.2053 28.7596 86.43 28.8002 86.6363 28.8812C86.8427 28.9586 87.0195 29.0747 87.1669 29.2294C87.3179 29.3805 87.4358 29.5684 87.5206 29.7931C87.6053 30.0142 87.6477 30.2702 87.6477 30.5613C87.6477 30.845 87.6035 31.0974 87.515 31.3184C87.4303 31.5395 87.3106 31.7274 87.1558 31.8821C87.0048 32.0332 86.8242 32.1492 86.6142 32.2303C86.4079 32.3114 86.1832 32.3519 85.94 32.3519C85.6968 32.3519 85.4721 32.3132 85.2657 32.2358C85.0594 32.1585 84.8807 32.0442 84.7297 31.8932C84.5823 31.7421 84.4662 31.5561 84.3815 31.335C84.2968 31.1103 84.2544 30.8524 84.2544 30.5613C84.2544 30.2776 84.2968 30.0252 84.3815 29.8042C84.4699 29.5794 84.5897 29.3897 84.7407 29.2349C84.8955 29.0802 85.076 28.9623 85.2823 28.8812C85.4923 28.8002 85.7189 28.7596 85.9621 28.7596ZM84.9728 30.5613C84.9728 30.7787 84.9986 30.9666 85.0502 31.125C85.1018 31.2834 85.1718 31.4161 85.2602 31.5229C85.3523 31.6261 85.4573 31.7034 85.5752 31.755C85.6968 31.8066 85.8258 31.8324 85.9621 31.8324C86.0984 31.8324 86.2255 31.8066 86.3434 31.755C86.4613 31.7034 86.5626 31.6261 86.6474 31.5229C86.7358 31.4161 86.804 31.2834 86.8519 31.125C86.9034 30.9666 86.9292 30.7787 86.9292 30.5613C86.9292 30.3402 86.9034 30.1486 86.8519 29.9865C86.8003 29.8244 86.7284 29.6918 86.6363 29.5886C86.5479 29.4818 86.4429 29.4044 86.3213 29.3565C86.2034 29.3049 86.0763 29.2791 85.94 29.2791C85.8037 29.2791 85.6766 29.3068 85.5587 29.362C85.4408 29.4136 85.3376 29.4928 85.2492 29.5997C85.1644 29.7028 85.0963 29.8355 85.0447 29.9976C84.9968 30.1597 84.9728 30.3476 84.9728 30.5613Z" fill="#353936" style="fill:#353936;fill:color(display-p3 0.2078 0.2235 0.2118);fill-opacity:1;"/>
<path d="M80.5796 28.8149H81.1875L82.5139 30.7713C82.5876 30.8819 82.6557 30.9924 82.7184 31.1029C82.781 31.2098 82.8307 31.2982 82.8676 31.3682H82.8786C82.8565 31.114 82.8455 30.8598 82.8455 30.6055C82.8455 30.3476 82.8455 30.0916 82.8455 29.8373V28.8149H83.481V32.2967H82.8731L81.6075 30.4453C81.5228 30.32 81.4417 30.1892 81.3644 30.0529C81.2907 29.9166 81.2336 29.806 81.193 29.7213H81.182C81.2004 29.9939 81.2096 30.2592 81.2096 30.5171C81.2133 30.7713 81.2151 31.0311 81.2151 31.2964V32.2967H80.5796V28.8149Z" fill="#353936" style="fill:#353936;fill:color(display-p3 0.2078 0.2235 0.2118);fill-opacity:1;"/>
<path d="M76.7339 28.8149H77.3418L78.6682 30.7713C78.7419 30.8819 78.81 30.9924 78.8727 31.1029C78.9353 31.2098 78.985 31.2982 79.0219 31.3682H79.0329C79.0108 31.114 78.9998 30.8598 78.9998 30.6055C78.9998 30.3476 78.9998 30.0916 78.9998 29.8373V28.8149H79.6353V32.2967H79.0274L77.7618 30.4453C77.6771 30.32 77.596 30.1892 77.5187 30.0529C77.445 29.9166 77.3879 29.806 77.3473 29.7213H77.3363C77.3547 29.9939 77.3639 30.2592 77.3639 30.5171C77.3676 30.7713 77.3694 31.0311 77.3694 31.2964V32.2967H76.7339V28.8149Z" fill="#353936" style="fill:#353936;fill:color(display-p3 0.2078 0.2235 0.2118);fill-opacity:1;"/>
<path d="M75.7966 28.815V32.2967H75.1223V28.815H75.7966Z" fill="#353936" style="fill:#353936;fill:color(display-p3 0.2078 0.2235 0.2118);fill-opacity:1;"/>
<path d="M151.73 18.0682C154.081 18.0682 155.257 19.3194 155.257 21.8219V23.3007C155.257 25.8032 154.081 27.0545 151.73 27.0545H148.574C146.597 27.0545 145.451 26.1697 145.137 24.4001C145.02 23.7466 145.047 24.1705 145.047 23.5097L148.574 22.4191V23.6704C148.574 23.8221 148.621 23.9548 148.716 24.0685C148.83 24.1823 148.962 24.2392 149.114 24.2392H151.446C151.598 24.2392 151.721 24.1823 151.816 24.0685C151.929 23.9548 151.986 23.8221 151.986 23.6704V21.9641C151.986 21.8125 151.929 21.6798 151.816 21.566C151.721 21.4523 151.598 21.3954 151.446 21.3954H148.517C146.166 21.3954 144.99 20.1441 144.99 17.6416V16.3619C144.99 13.8594 146.166 12.6081 148.517 12.6081H151.503C153.599 12.6081 154.761 13.6034 154.988 15.5941C155.036 16.0193 155.029 15.3561 155.029 15.7832L151.503 16.8738V15.9922C151.503 15.8405 151.446 15.7078 151.332 15.5941C151.237 15.4803 151.114 15.4234 150.962 15.4234H148.801C148.649 15.4234 148.517 15.4803 148.403 15.5941C148.308 15.7078 148.261 15.8405 148.261 15.9922V17.4994C148.261 17.6511 148.308 17.7838 148.403 17.8975C148.517 18.0113 148.649 18.0682 148.801 18.0682H151.73Z" fill="#BE0101" style="fill:#BE0101;fill:color(display-p3 0.7451 0.0039 0.0039);fill-opacity:1;"/>
<path d="M138.627 12.8925H142.437V26.7701H138.968V26.0592C138.38 26.7228 137.489 27.0545 136.295 27.0545H135.698C133.347 27.0545 132.171 25.8033 132.171 23.3007V12.8925H135.982V23.7557C135.982 23.9074 136.029 24.0401 136.124 24.1539C136.238 24.2676 136.371 24.3245 136.522 24.3245H138.086C138.238 24.3245 138.361 24.2676 138.456 24.1539C138.57 24.0401 138.627 23.9074 138.627 23.7557V12.8925Z" fill="#BE0101" style="fill:#BE0101;fill:color(display-p3 0.7451 0.0039 0.0039);fill-opacity:1;"/>
<path d="M126.092 23.386H125.495C124.528 23.386 123.751 23.1585 123.163 22.7035V27.0545H119.352V13.2053H122.566V14.229C123.153 13.3569 124.13 12.9209 125.495 12.9209H126.092C128.443 12.9209 129.618 14.1722 129.618 16.6747V19.6322C129.618 22.1348 128.443 23.386 126.092 23.386ZM123.163 16.2197V20.0872C123.163 20.2389 123.21 20.3716 123.305 20.4854C123.419 20.5991 123.552 20.656 123.703 20.656H125.267C125.419 20.656 125.542 20.5991 125.637 20.4854C125.751 20.3716 125.808 20.2389 125.808 20.0872V16.2197C125.808 16.068 125.751 15.9353 125.637 15.8216C125.542 15.7078 125.419 15.6509 125.267 15.6509H123.703C123.552 15.6509 123.419 15.7078 123.305 15.8216C123.21 15.9353 123.163 16.068 123.163 16.2197Z" fill="#BE0101" style="fill:#BE0101;fill:color(display-p3 0.7451 0.0039 0.0039);fill-opacity:1;"/>
<path d="M113.273 12.6081C115.624 12.6081 116.799 13.8594 116.799 16.3619V26.7701H112.989V15.9069C112.989 15.7552 112.932 15.6225 112.818 15.5088C112.723 15.395 112.6 15.3381 112.448 15.3381H111.225C111.074 15.3381 110.941 15.395 110.827 15.5088C110.732 15.6225 110.685 15.7552 110.685 15.9069V26.7701H106.874V15.9069C106.874 15.7552 106.818 15.6225 106.704 15.5088C106.609 15.395 106.486 15.3381 106.334 15.3381H105.111C104.96 15.3381 104.827 15.395 104.713 15.5088C104.618 15.6225 104.571 15.7552 104.571 15.9069V26.7701H100.76V12.8925H104.23V13.6034C104.817 12.9399 105.708 12.6081 106.903 12.6081H107.159C108.562 12.6081 109.538 13.0441 110.088 13.9162C110.676 13.0441 111.652 12.6081 113.017 12.6081H113.273Z" fill="#BE0101" style="fill:#BE0101;fill:color(display-p3 0.7451 0.0039 0.0039);fill-opacity:1;"/>
<path d="M94.994 12.8925H98.2075V26.7701H94.994V25.7464C94.4063 26.6185 93.4299 27.0545 92.0649 27.0545H91.4677C89.1168 27.0545 87.9414 25.8032 87.9414 23.3007V16.3619C87.9414 13.8594 89.1168 12.6081 91.4677 12.6081H92.0649C93.4299 12.6081 94.4063 13.0441 94.994 13.9162V12.8925ZM94.3968 23.7557V15.9069C94.3968 15.7552 94.3399 15.6225 94.2262 15.5088C94.1314 15.395 94.0081 15.3381 93.8565 15.3381H92.2924C92.1407 15.3381 92.008 15.395 91.8943 15.5088C91.7995 15.6225 91.7521 15.7552 91.7521 15.9069V23.7557C91.7521 23.9074 91.7995 24.0401 91.8943 24.1538C92.008 24.2676 92.1407 24.3245 92.2924 24.3245H93.8565C94.0081 24.3245 94.1314 24.2676 94.2262 24.1538C94.3399 24.0401 94.3968 23.9074 94.3968 23.7557Z" fill="#BE0101" style="fill:#BE0101;fill:color(display-p3 0.7451 0.0039 0.0039);fill-opacity:1;"/>
<path d="M85.3884 17.262L81.5777 18.3525V15.9069C81.5777 15.7552 81.5208 15.6225 81.4071 15.5088C81.3123 15.395 81.1891 15.3381 81.0374 15.3381H79.4733C79.3216 15.3381 79.1889 15.395 79.0752 15.5088C78.9804 15.6225 78.933 15.7552 78.933 15.9069V23.7557C78.933 23.9074 78.9804 24.0401 79.0752 24.1539C79.1889 24.2676 79.3216 24.3245 79.4733 24.3245H81.0374C81.1891 24.3245 81.3123 24.2676 81.4071 24.1539C81.5208 24.0401 81.5777 23.9074 81.5777 23.7557V22.4006L85.3884 21.3101V23.3007C85.3884 25.8032 84.2129 27.0545 81.8621 27.0545H78.6486C76.2977 27.0545 75.1223 25.8032 75.1223 23.3007V16.3619C75.1223 13.8594 76.2977 12.6081 78.6486 12.6081H81.8621C84.2129 12.6081 85.3884 13.8594 85.3884 16.3619V17.262Z" fill="#BE0101" style="fill:#BE0101;fill:color(display-p3 0.7451 0.0039 0.0039);fill-opacity:1;"/>
<path d="M59.9488 11.1579C59.5506 11.556 59.0672 11.7551 58.4984 11.7551C57.9297 11.7551 57.4368 11.556 57.0197 11.1579C56.6026 10.7408 56.394 10.2479 56.394 9.67911C56.394 9.09139 56.6026 8.59847 57.0197 8.20034C57.4368 7.78325 57.9297 7.57471 58.4984 7.57471C59.0672 7.57471 59.5506 7.78325 59.9488 8.20034C60.3659 8.59847 60.5744 9.09139 60.5744 9.67911C60.5744 10.2668 60.3659 10.7597 59.9488 11.1579ZM56.5931 26.7702V12.8926H60.4038V26.7702H56.5931Z" fill="#BE0101" style="fill:#BE0101;fill:color(display-p3 0.7451 0.0039 0.0039);fill-opacity:1;"/>
<path d="M66.3278 26.8534V29.1589H72.4069V32.4293H62.6878V26.3485C62.6878 24.7649 63.276 23.9107 64.141 23.3267C65.1564 22.6411 67.4335 22.016 68.4267 21.5344C68.6924 21.4056 68.9659 21.1877 68.9659 20.7068V16.2766C68.9659 16.1249 68.9091 15.9922 68.7953 15.8784C68.7005 15.7647 68.5773 15.7078 68.4256 15.7078H66.8113C66.6596 15.7078 66.5269 15.7647 66.4132 15.8784C66.3184 15.9922 66.271 16.1249 66.271 16.2766V19.3627L62.4887 20.4532V16.3619C62.4887 13.8594 63.6642 12.6081 66.015 12.6081H69.1081C71.459 12.6081 72.6344 13.8594 72.6344 16.3619V21.2482C72.6344 23.2249 71.7154 24.0692 70.4838 24.6669C69.5937 25.0988 67.6555 25.6551 66.8434 26.0526C66.5671 26.1878 66.3278 26.5073 66.3278 26.8534Z" fill="#BE0101" style="fill:#BE0101;fill:color(display-p3 0.7451 0.0039 0.0039);fill-opacity:1;"/>
<path fill-rule="evenodd" clip-rule="evenodd" d="M23.8774 1.69068C25.4051 0.823897 27.2756 0.82255 28.8045 1.68714L40.1828 8.12141C41.7512 9.00831 42.7209 10.6706 42.7209 12.4724V27.9643C42.7209 29.7964 41.7186 31.4817 40.1089 32.3564L28.7304 38.539C27.24 39.3489 25.4406 39.3476 23.9513 38.5356L12.6198 32.3578C11.0134 31.482 10.0139 29.7986 10.0139 27.9691V12.4676C10.0139 10.6684 10.9809 9.00802 12.5457 8.12014L23.8774 1.69068Z" fill="#353936" style="fill:#353936;fill:color(display-p3 0.2078 0.2235 0.2118);fill-opacity:1;"/>
<path d="M23.8843 27.3738L8.01573 18.2237C4.64207 16.2784 4.68907 11.3935 8.09953 9.51343L23.3079 1.12968C25.1442 0.246372 27.1665 -0.195275 29.5142 1.12967L44.6616 9.51166C48.0649 11.3949 48.1092 16.272 44.7407 18.2167L28.8818 27.3724C27.3357 28.2651 25.4309 28.2656 23.8843 27.3738Z" fill="#BE0101" style="fill:#BE0101;fill:color(display-p3 0.7451 0.0039 0.0039);fill-opacity:1;"/>
<path fill-rule="evenodd" clip-rule="evenodd" d="M31.8904 18.2646C31.8904 16.962 31.4622 15.7559 30.7343 14.7703C28.8991 11.1478 24.4664 7.61835 18.5396 8.52233C23.4248 5.33193 29.0174 5.73075 33.3473 8.95676C34.1594 9.72856 35.4707 11.1184 35.7969 12.7049C36.4741 16 35.0063 19.6496 30.9641 21.4249C31.5515 20.5061 31.8904 19.4236 31.8904 18.2646ZM22.9566 23.6878C22.2307 23.3481 21.5835 22.8751 21.0485 22.3016C21.1371 24.848 24.1805 29.7728 30.2543 29.0098C37.0494 27.0162 38.6836 19.9751 37.7431 15.729C36.9967 20.3383 32.5791 23.6571 28.1627 24.2518C26.4809 24.4783 24.5038 24.4119 22.9566 23.6878ZM22.6469 33.0736C25.0997 33.4265 26.4143 33.4299 28.6463 33.0736C30.1187 32.7266 30.797 31.7713 31.1062 30.7031C28.148 31.133 25.4565 30.9434 22.3536 28.4826C19.4129 25.7432 17.9782 21.5138 19.721 16.4349C19.9419 15.7487 20.215 15.2398 20.5364 14.8522C21.6547 13.2765 23.5264 12.2436 25.6466 12.2436C25.93 12.2436 26.2089 12.2621 26.4821 12.2978C23.5941 9.9692 19.4269 9.46001 16.2347 11.4041C15.4862 11.9342 14.5419 13.0527 14.0602 14.1011C13.5629 15.3937 13.2913 16.7921 13.2913 18.2518C13.2913 22.2037 15.2827 25.7065 18.3496 27.8766C19.5836 28.6899 20.1855 30.6978 20.1855 30.6978C20.494 31.7681 21.1721 32.7261 22.6469 33.0736Z" fill="#F6F3F3" style="fill:#F6F3F3;fill:color(display-p3 0.9647 0.9529 0.9529);fill-opacity:1;"/>
</svg>
