<svg width="224" height="57" viewBox="0 0 224 57" fill="none" xmlns="http://www.w3.org/2000/svg">
<rect width="219.5" height="56.0892" fill="#F8F9FA"/>
<path fill-rule="evenodd" clip-rule="evenodd" d="M31.8361 3.22132C34.8924 1.48722 38.6346 1.48453 41.6933 3.21422L54.743 10.5937C57.8807 12.368 59.8207 15.6937 59.8207 19.2983V37.6131C59.8207 41.2783 57.8156 44.6498 54.5951 46.3997L41.5451 53.4906C38.5634 55.1108 34.9634 55.1083 31.984 53.4839L18.9952 46.4025C15.7816 44.6505 13.782 41.2828 13.782 37.6226V19.2886C13.782 15.6892 15.7165 12.3674 18.8471 10.5911L31.8361 3.22132Z" fill="#353936"/>
<path d="M34.3249 39.132L7.83824 23.8593C4.46458 21.914 4.51157 17.0291 7.92203 15.1491L32.4948 1.6031C35.0797 0.359747 37.9262 -0.26192 41.2308 1.60309L65.7072 15.1473C69.1104 17.0305 69.1547 21.9076 65.7862 23.8523L39.3224 39.1306C37.7763 40.0233 35.8715 40.0238 34.3249 39.132Z" fill="#BE0101"/>
<path fill-rule="evenodd" clip-rule="evenodd" d="M44.5756 25.7224C44.5756 23.8888 43.9729 22.1911 42.9483 20.8037C40.365 15.7047 34.1255 10.7365 25.7829 12.009C32.6594 7.51815 40.5316 8.07953 46.6264 12.6205C47.7695 13.7069 49.6154 15.6632 50.0744 17.8965C51.0277 22.5346 48.9616 27.6719 43.2718 30.1707C44.0985 28.8774 44.5756 27.3537 44.5756 25.7224ZM32.0004 33.3561C30.9786 32.8779 30.0675 32.2121 29.3144 31.4048C29.4392 34.9892 33.7231 41.9214 42.2726 40.8474C51.8375 38.0412 54.1379 28.1301 52.814 22.1532C51.7633 28.6412 45.545 33.3128 39.3285 34.15C36.9611 34.4688 34.1781 34.3754 32.0004 33.3561ZM31.5644 46.5676C35.0169 47.0643 36.8674 47.0692 40.0092 46.5676C42.0817 46.0793 43.0366 44.7345 43.4717 43.2308C39.3078 43.836 35.5192 43.5691 31.1515 40.1053C27.0122 36.2493 24.9927 30.2959 27.4459 23.1468C27.7568 22.1808 28.1412 21.4646 28.5936 20.9189C30.1677 18.701 32.8023 17.2471 35.7868 17.2471C36.1856 17.2471 36.5782 17.2731 36.9628 17.3234C32.8977 14.0456 27.0319 13.3289 22.5384 16.0655C21.4848 16.8116 20.1557 18.386 19.4776 19.8617C18.7777 21.6812 18.3953 23.6497 18.3953 25.7043C18.3953 31.267 21.1984 36.1977 25.5154 39.2522C27.2525 40.3972 28.0997 43.2234 28.0997 43.2234C28.5339 44.7301 29.4884 46.0784 31.5644 46.5676Z" fill="#F6F3F3"/>
<path d="M218.678 23.6844C221.987 23.6844 223.642 25.4457 223.642 28.9683V31.0498C223.642 34.5724 221.987 36.3337 218.678 36.3337H214.235C211.452 36.3337 209.84 35.0883 209.397 32.5974C209.234 31.6775 209.271 32.2741 209.271 31.344L214.235 29.8089V31.5702C214.235 31.7837 214.302 31.9705 214.435 32.1306C214.595 32.2907 214.782 32.3708 214.996 32.3708H218.278C218.492 32.3708 218.665 32.2907 218.798 32.1306C218.959 31.9705 219.039 31.7837 219.039 31.5702V29.1685C219.039 28.955 218.959 28.7682 218.798 28.608C218.665 28.4479 218.492 28.3679 218.278 28.3679H214.155C210.846 28.3679 209.191 26.6066 209.191 23.084V21.2827C209.191 17.7601 210.846 15.9988 214.155 15.9988H218.358C221.309 15.9988 222.945 17.3998 223.264 20.2019C223.332 20.8004 223.322 19.8669 223.322 20.4681L218.358 22.0032V20.7623C218.358 20.5488 218.278 20.362 218.118 20.2019C217.985 20.0417 217.811 19.9617 217.598 19.9617H214.555C214.342 19.9617 214.155 20.0417 213.995 20.2019C213.862 20.362 213.795 20.5488 213.795 20.7623V22.8838C213.795 23.0973 213.862 23.2841 213.995 23.4442C214.155 23.6044 214.342 23.6844 214.555 23.6844H218.678Z" fill="#BE0101"/>
<path d="M200.234 16.3989H205.598V35.9333H200.714V34.9325C199.887 35.8666 198.632 36.3336 196.951 36.3336H196.111C192.802 36.3336 191.147 34.5723 191.147 31.0497V16.3989H196.511V31.6902C196.511 31.9036 196.578 32.0905 196.711 32.2506C196.871 32.4107 197.058 32.4907 197.271 32.4907H199.473C199.687 32.4907 199.86 32.4107 199.993 32.2506C200.154 32.0905 200.234 31.9036 200.234 31.6902V16.3989Z" fill="#BE0101"/>
<path d="M182.59 31.17H181.749C180.388 31.17 179.294 30.8498 178.467 30.2093V36.3338H173.103V16.8395H177.626V18.2806C178.453 17.053 179.828 16.4392 181.749 16.4392H182.59C185.899 16.4392 187.553 18.2005 187.553 21.7231V25.8861C187.553 29.4087 185.899 31.17 182.59 31.17ZM178.467 21.0826V26.5266C178.467 26.7401 178.533 26.9269 178.667 27.087C178.827 27.2471 179.014 27.3272 179.227 27.3272H181.429C181.642 27.3272 181.816 27.2471 181.949 27.087C182.109 26.9269 182.189 26.7401 182.189 26.5266V21.0826C182.189 20.8691 182.109 20.6823 181.949 20.5222C181.816 20.3621 181.642 20.282 181.429 20.282H179.227C179.014 20.282 178.827 20.3621 178.667 20.5222C178.533 20.6823 178.467 20.8691 178.467 21.0826Z" fill="#BE0101"/>
<path d="M164.546 15.9988C167.855 15.9988 169.509 17.7601 169.509 21.2827V35.9334H164.145V20.6422C164.145 20.4287 164.065 20.2419 163.905 20.0818C163.772 19.9217 163.598 19.8416 163.385 19.8416H161.663C161.45 19.8416 161.263 19.9217 161.103 20.0818C160.97 20.2419 160.903 20.4287 160.903 20.6422V35.9334H155.539V20.6422C155.539 20.4287 155.459 20.2419 155.299 20.0818C155.165 19.9217 154.992 19.8416 154.778 19.8416H153.057C152.844 19.8416 152.657 19.9217 152.497 20.0818C152.363 20.2419 152.297 20.4287 152.297 20.6422V35.9334H146.933V16.3991H151.816V17.3998C152.643 16.4658 153.898 15.9988 155.579 15.9988H155.939C157.914 15.9988 159.288 16.6126 160.062 17.8401C160.89 16.6126 162.264 15.9988 164.185 15.9988H164.546Z" fill="#BE0101"/>
<path d="M138.815 16.3991H143.339V35.9334H138.815V34.4924C137.988 35.7199 136.614 36.3337 134.692 36.3337H133.852C130.542 36.3337 128.888 34.5724 128.888 31.0498V21.2827C128.888 17.7601 130.542 15.9988 133.852 15.9988H134.692C136.614 15.9988 137.988 16.6126 138.815 17.8401V16.3991ZM137.975 31.6903V20.6422C137.975 20.4287 137.895 20.2419 137.734 20.0818C137.601 19.9217 137.428 19.8416 137.214 19.8416H135.012C134.799 19.8416 134.612 19.9217 134.452 20.0818C134.319 20.2419 134.252 20.4287 134.252 20.6422V31.6903C134.252 31.9038 134.319 32.0906 134.452 32.2507C134.612 32.4108 134.799 32.4909 135.012 32.4909H137.214C137.428 32.4909 137.601 32.4108 137.734 32.2507C137.895 32.0906 137.975 31.9038 137.975 31.6903Z" fill="#BE0101"/>
<path d="M125.295 22.5497L119.931 24.0847V20.6422C119.931 20.4287 119.851 20.2419 119.691 20.0818C119.557 19.9217 119.384 19.8416 119.17 19.8416H116.969C116.755 19.8416 116.568 19.9217 116.408 20.0818C116.275 20.2419 116.208 20.4287 116.208 20.6422V31.6903C116.208 31.9038 116.275 32.0906 116.408 32.2507C116.568 32.4108 116.755 32.4909 116.969 32.4909H119.17C119.384 32.4909 119.557 32.4108 119.691 32.2507C119.851 32.0906 119.931 31.9038 119.931 31.6903V29.7828L125.295 28.2478V31.0498C125.295 34.5724 123.64 36.3337 120.331 36.3337H115.808C112.499 36.3337 110.844 34.5724 110.844 31.0498V21.2827C110.844 17.7601 112.499 15.9988 115.808 15.9988H120.331C123.64 15.9988 125.295 17.7601 125.295 21.2827V22.5497Z" fill="#BE0101"/>
<path d="M89.4859 13.9573C88.9254 14.5177 88.2449 14.7979 87.4444 14.7979C86.6438 14.7979 85.9499 14.5177 85.3628 13.9573C84.7757 13.3702 84.4822 12.6763 84.4822 11.8758C84.4822 11.0485 84.7757 10.3546 85.3628 9.79422C85.9499 9.20712 86.6438 8.91357 87.4444 8.91357C88.2449 8.91357 88.9254 9.20712 89.4859 9.79422C90.073 10.3546 90.3665 11.0485 90.3665 11.8758C90.3665 12.703 90.073 13.3969 89.4859 13.9573ZM84.7624 35.9334V16.3991H90.1263V35.9334H84.7624Z" fill="#BE0101"/>
<path d="M98.4647 36.0506V39.2959H107.022V43.8993H93.341V35.3399C93.341 33.1108 94.1689 31.9085 95.3865 31.0863C96.8158 30.1213 100.021 29.2415 101.419 28.5636C101.793 28.3823 102.178 28.0755 102.178 27.3987V21.1626C102.178 20.9491 102.098 20.7623 101.938 20.6022C101.805 20.442 101.631 20.362 101.418 20.362H99.1452C98.9317 20.362 98.7449 20.442 98.5848 20.6022C98.4514 20.7623 98.3847 20.9491 98.3847 21.1626V25.5066L93.0607 27.0417V21.2827C93.0607 17.7601 94.7153 15.9988 98.0244 15.9988H102.378C105.687 15.9988 107.342 17.7601 107.342 21.2827V28.1608C107.342 30.9431 106.048 32.1316 104.315 32.9729C103.062 33.5808 100.334 34.3639 99.1904 34.9234C98.8015 35.1137 98.4647 35.5635 98.4647 36.0506Z" fill="#BE0101"/>
</svg>
